<mxfile host="app.diagrams.net" modified="2021-05-27T09:28:32.591Z" agent="5.0 (Windows NT 10.0; Win64; x64) AppleWebKit/537.36 (KHTML, like Gecko) Chrome/89.0.4389.114 Safari/537.36" etag="L5Ry-sFObnXrqsVX8y77" version="14.6.12" type="github">
  <diagram id="KAi75ffr3LW3WgSYukdx" name="Page-1">
    <mxGraphModel dx="1038" dy="548" grid="1" gridSize="10" guides="1" tooltips="1" connect="1" arrows="1" fold="1" page="1" pageScale="1" pageWidth="827" pageHeight="1169" math="0" shadow="0">
      <root>
        <mxCell id="0" />
        <mxCell id="1" parent="0" />
        <mxCell id="FDsz7og_MnK8PUFmMtjH-1" value="start" style="ellipse;whiteSpace=wrap;html=1;" vertex="1" parent="1">
          <mxGeometry x="220" y="80" width="120" height="80" as="geometry" />
        </mxCell>
        <mxCell id="FDsz7og_MnK8PUFmMtjH-2" value="shenyu-web 入口" style="rounded=0;whiteSpace=wrap;html=1;" vertex="1" parent="1">
          <mxGeometry x="200" y="240" width="200" height="60" as="geometry" />
        </mxCell>
        <mxCell id="FDsz7og_MnK8PUFmMtjH-3" value="ShenyuWebHandler（execute）" style="rounded=0;whiteSpace=wrap;html=1;" vertex="1" parent="1">
          <mxGeometry x="210" y="360" width="200" height="60" as="geometry" />
        </mxCell>
        <mxCell id="FDsz7og_MnK8PUFmMtjH-4" value="是否skip" style="rhombus;whiteSpace=wrap;html=1;" vertex="1" parent="1">
          <mxGeometry x="210" y="480" width="210" height="120" as="geometry" />
        </mxCell>
        <mxCell id="FDsz7og_MnK8PUFmMtjH-5" value="返回false且有启动的注册的插件中" style="rounded=0;whiteSpace=wrap;html=1;" vertex="1" parent="1">
          <mxGeometry x="210" y="680" width="280" height="60" as="geometry" />
        </mxCell>
        <mxCell id="FDsz7og_MnK8PUFmMtjH-6" value="dubbo泛化调用" style="rounded=0;whiteSpace=wrap;html=1;" vertex="1" parent="1">
          <mxGeometry x="200" y="800" width="330" height="60" as="geometry" />
        </mxCell>
        <mxCell id="FDsz7og_MnK8PUFmMtjH-7" value="AlibabaDubboProxyService#genericInvoker(body,metadata)" style="rounded=0;whiteSpace=wrap;html=1;" vertex="1" parent="1">
          <mxGeometry x="200" y="920" width="350" height="60" as="geometry" />
        </mxCell>
        <mxCell id="FDsz7og_MnK8PUFmMtjH-8" value="AlibabaDubboPlugin#doExecute(ServerWebExchange,ShenyuPluginChain,&amp;nbsp; Selecter, RuleData)" style="rounded=0;whiteSpace=wrap;html=1;" vertex="1" parent="1">
          <mxGeometry x="180" y="1030" width="630" height="60" as="geometry" />
        </mxCell>
        <mxCell id="FDsz7og_MnK8PUFmMtjH-9" value="&lt;h1&gt;ServerWebExchange&lt;/h1&gt;&lt;div&gt;request response attribute.....&lt;/div&gt;" style="text;html=1;strokeColor=#d6b656;fillColor=#fff2cc;spacing=5;spacingTop=-20;whiteSpace=wrap;overflow=hidden;rounded=0;" vertex="1" parent="1">
          <mxGeometry x="740" y="760" width="320" height="120" as="geometry" />
        </mxCell>
      </root>
    </mxGraphModel>
  </diagram>
</mxfile>
